<svg xmlns="http://www.w3.org/2000/svg" xmlns:xlink="http://www.w3.org/1999/xlink" style="margin:auto;display:block;" width="200px" height="200px" viewBox="0 0 100 100" preserveAspectRatio="xMidYMid">


<path transform="translate(40,60)" fill="#6100C2" d="M10.988-11.314c-0.201-0.914-2.865,0.152-3.31,0.255c-2.865,0.661-5.73,1.322-8.594,1.983 C-1.873-8.855-2.84-8.658-3.791-8.413c-0.481,0.124-0.664,0.217-0.719,0.77c-0.18,1.819,0,3.786,0,5.621c0,2.663,0,5.325,0,7.988 c-2.146-1.278-5.411,0.577-6.269,2.683c-1.074,2.636,1.925,3.462,3.907,2.736c1.954-0.715,3.253-2.269,3.343-4.333 c0.046-1.037,0-2.087,0-3.125c0-1.638,0-3.276,0-4.914c0-0.673,0-1.346,0-2.019c0-0.215-0.116-0.848,0-1.036 c0.17-0.277,1.196-0.348,1.535-0.427c1.425-0.329,2.849-0.657,4.274-0.986c2.579-0.595,5.158-1.19,7.737-1.786 c0,3.284,0,6.569,0,9.853c-1.64-0.977-3.949-0.013-5.2,1.179c-0.958,0.913-1.87,2.579-0.84,3.778 c1.198,1.393,3.567,0.71,4.866-0.135C10.164,6.578,10.936,5.347,11,3.788c0.148-3.605,0-7.245,0-10.853c0-0.415,0-0.829,0-1.244 C11-9.247,11.189-10.396,10.988-11.314z">
  <animateTransform attributeName="transform" type="translate" keyTimes="0;0.3;0.6;0.9;1" values="40 130;40 130;40 60;40 130;40 130;" keySplines="0 0 1 1;0 0.5 0.5 1;0.5 0 1 0.5;0 0 1 1" calcMode="spline" dur="1.7857142857142856s" repeatCount="indefinite" begin="-0.8928571428571428s"></animateTransform>
</path>

</svg>