<svg width="73" height="20" viewBox="0 0 73 20" fill="none" xmlns="http://www.w3.org/2000/svg">
<path d="M33.19 13.2528C33.19 12.6018 32.7343 12.2242 31.9922 12.2242H30.3778V14.2422H32.0183C32.7604 14.2422 33.19 13.9037 33.19 13.2528ZM32.9687 9.64635C32.9687 9.02141 32.5651 8.68291 31.836 8.68291H30.3778V10.5968H31.836C32.5651 10.5968 32.9687 10.2713 32.9687 9.64635ZM35.4424 13.5522C35.4424 15.0625 34.3357 16.0389 32.4088 16.0389H28.1514V6.89923H32.2656C34.1274 6.89923 35.2341 7.82362 35.2341 9.26878C35.2341 10.3754 34.5701 11.0915 33.6847 11.3519C34.7524 11.5732 35.4424 12.5106 35.4424 13.5522ZM43.1132 6.89923V8.68291H39.7412V10.5317H42.7226V12.2503H39.7412V14.2553H43.1132V16.0389H37.5148V6.89923H43.1132ZM51.5761 16.0389L51.0293 14.4245H47.6182L47.0714 16.0389H44.7409L48.0478 6.89923H50.6257L53.9327 16.0389H51.5761ZM50.4564 12.7059L49.3237 9.35992L48.2041 12.7059H50.4564ZM55.2256 8.68291V6.89923H62.2952V8.68291H59.8735V16.0389H57.6472V8.68291H55.2256ZM70.8336 13.3179C70.8336 14.8542 69.6358 16.1301 67.5006 16.1301C65.5347 16.1301 63.9984 15.1536 63.9333 13.3048H66.3028C66.3679 14.0079 66.8106 14.3464 67.4355 14.3464C68.0865 14.3464 68.5031 14.0209 68.5031 13.4871C68.5031 11.7946 63.9333 12.7059 63.9593 9.46408C63.9593 7.73248 65.3785 6.76903 67.2923 6.76903C69.2843 6.76903 70.6253 7.75852 70.7165 9.50314H68.3078C68.2688 8.91726 67.8522 8.56573 67.2533 8.55271C66.7195 8.53969 66.3159 8.8131 66.3159 9.38596C66.3159 10.9743 70.8336 10.2583 70.8336 13.3179Z" fill="white"/>
<path d="M18.9935 4.84931C18.9935 4.26504 18.9442 3.68315 18.8046 3.11432C18.5541 2.07819 17.9633 1.2867 17.0792 0.705397C16.6243 0.408513 16.1238 0.226226 15.5918 0.130035C15.1833 0.0558142 14.7694 0.0219694 14.3549 0.0124691C14.3241 0.0095003 14.2902 0.00296884 14.2558 0H4.73709C4.61655 0.0095003 4.49602 0.015438 4.37548 0.0213757C3.78468 0.0552205 3.19744 0.116972 2.64049 0.339636C1.58299 0.757055 0.818807 1.4868 0.37348 2.53836C0.219101 2.89403 0.141317 3.27107 0.0860964 3.65465C0.0397825 3.964 0.0148442 4.27632 0.00593769 4.58864C0.00593769 4.61358 0 4.63793 0 4.66286V14.3395C0.00593769 14.4511 0.0124691 14.5622 0.0184068 14.6738C0.0587831 15.3204 0.141911 15.9605 0.41445 16.5543C0.92806 17.6771 1.79081 18.4157 2.97537 18.7714C3.3061 18.8735 3.65286 18.9198 3.99903 18.9507C4.43842 18.9941 4.87722 19 5.3166 19H14.0498C14.4642 19 14.8787 18.9721 15.2931 18.9198C15.9457 18.8361 16.5578 18.6443 17.1118 18.2798C17.7768 17.8404 18.278 17.2591 18.5992 16.5323C18.7476 16.198 18.8314 15.8429 18.8931 15.4837C18.9828 14.9487 19.0012 14.4072 19.0012 13.8663C18.9982 10.86 19.0012 7.85437 18.9982 4.84812L18.9935 4.84931ZM13.909 8.00638V12.5279C13.909 12.8587 13.8627 13.1834 13.7143 13.4833C13.4857 13.95 13.1146 14.2439 12.6164 14.3864C12.3409 14.4666 12.0565 14.5099 11.7691 14.5224C11.0174 14.5598 10.3648 14.0492 10.2318 13.3069C10.1172 12.6948 10.4111 12.0202 11.0542 11.705C11.3077 11.5815 11.5832 11.5072 11.8582 11.4514C12.158 11.3867 12.4579 11.3279 12.7547 11.2596C12.9744 11.2103 13.1163 11.0773 13.1597 10.8511C13.1722 10.8018 13.1751 10.749 13.1751 10.6997C13.1751 9.2616 13.1751 7.82349 13.1751 6.38895C13.1751 6.33967 13.1656 6.28979 13.1538 6.24348C13.1229 6.12294 13.0362 6.05169 12.9127 6.05763C12.7856 6.06356 12.6621 6.08553 12.5386 6.11047C11.9353 6.22804 11.3327 6.34857 10.7324 6.47208L7.8039 7.06288C7.79143 7.06585 7.77599 7.07238 7.76352 7.07238C7.54383 7.13413 7.46664 7.23329 7.45714 7.46189C7.45417 7.49573 7.45714 7.53017 7.45714 7.56402C7.45417 9.6238 7.45714 11.6836 7.45417 13.7428C7.45417 14.0771 7.41676 14.4048 7.28435 14.7136C7.06466 15.2207 6.67515 15.5395 6.14966 15.6909C5.87118 15.7711 5.58677 15.818 5.29582 15.8269C4.53817 15.8548 3.907 15.3507 3.77756 14.6055C3.66593 13.9625 3.95984 13.2695 4.68958 12.9602C4.974 12.8426 5.26791 12.7779 5.56777 12.7161C5.7934 12.6698 6.02259 12.6235 6.24823 12.5772C6.55105 12.5125 6.70899 12.3207 6.72443 12.0113V11.8938C6.72443 9.54958 6.72443 7.20538 6.72443 4.86118C6.72443 4.76202 6.7369 4.66346 6.75827 4.56727C6.81409 4.34164 6.975 4.2116 7.19113 4.15875C7.39242 4.10591 7.59964 4.0691 7.80331 4.02575C8.38461 3.90818 8.96294 3.79062 9.54424 3.67602L11.341 3.31085C11.873 3.20576 12.4014 3.09769 12.9335 2.99259C13.1068 2.95875 13.2832 2.92134 13.459 2.90887C13.703 2.8875 13.8734 3.04188 13.8983 3.28948C13.9043 3.34826 13.9078 3.40704 13.9078 3.46583V8.00281L13.909 8.00638Z" fill="white"/>
</svg>
